# xmcd
#
# Track frame offsets:
# 150
# 19051
# 36476
# 62406
# 82740
# 93441
# 115897
# 139108
# 156787
# 173495
# 184470
# 205785
#
# Disc length: 3105 seconds
#
#
# Revision: 0
# Processed by: cddbd v1.5.1PL0 Copyright (c) Steve Scherf et al.
# Submitted via: FreeRIP 2.931 
#
DISCID=960c1f0c
DTITLE=DIXIE CHICKS - Home - Home
DYEAR=1900
DGENRE=Country
TTITLE0=Long time gone
TTITLE1=Landslide
TTITLE2=Travelin' soldier
TTITLE3=Truth No. 2
TTITLE4=White trash wedding
TTITLE5=A home
TTITLE6=More love
TTITLE7=I believe in love
TTITLE8=Tortured, tangled hearts
TTITLE9=Lil' Jack slade
TTITLE10=Godspeed (Sweet dreams)
TTITLE11=Top of the world
EXTD=
EXTT0=
EXTT1=
EXTT2=
EXTT3=
EXTT4=
EXTT5=
EXTT6=
EXTT7=
EXTT8=
EXTT9=
EXTT10=
EXTT11=
PLAYORDER=
